<?xml version="1.0" encoding="UTF-8" standalone="no"?><!DOCTYPE svg PUBLIC "-//W3C//DTD SVG 1.1//EN" "http://www.w3.org/Graphics/SVG/1.1/DTD/svg11.dtd">
<svg width="100%" height="100%" viewBox="0 0 170 72" version="1.1" xmlns="http://www.w3.org/2000/svg"  xml:space="preserve" style="fill-rule:evenodd;clip-rule:evenodd;stroke-linejoin:round;stroke-miterlimit:1.41421;"><g id="Ebene-1"><g><path d="M40.09,50.859l0,-10.207c0,-1.551 -0.258,-2.972 -0.775,-4.264c-0.517,-1.292 -1.221,-2.412 -2.111,-3.36c-0.89,-0.947 -1.945,-1.686 -3.165,-2.218c-1.221,-0.531 -2.52,-0.797 -3.898,-0.797c-1.378,0 -2.677,0.266 -3.897,0.797c-1.221,0.532 -2.277,1.271 -3.166,2.218c-0.89,0.948 -1.594,2.068 -2.11,3.36c-0.518,1.292 -0.776,2.713 -0.776,4.264c0,1.55 0.258,2.972 0.776,4.264c0.516,1.292 1.22,2.411 2.11,3.359c0.889,0.948 1.945,1.687 3.166,2.218c1.22,0.531 2.519,0.796 3.897,0.796c0.776,0 1.486,-0.086 2.132,-0.258c0.646,-0.172 1.234,-0.387 1.766,-0.646c0.531,-0.258 0.997,-0.538 1.4,-0.84c0.401,-0.301 0.76,-0.581 1.077,-0.84l0,-1.938c-0.891,0.919 -1.831,1.644 -2.822,2.175c-0.99,0.532 -2.175,0.797 -3.553,0.797c-1.034,0 -2.046,-0.229 -3.036,-0.689c-0.991,-0.459 -1.867,-1.091 -2.627,-1.895c-0.762,-0.804 -1.378,-1.759 -1.853,-2.864c-0.473,-1.105 -0.71,-2.319 -0.71,-3.639c0,-1.321 0.237,-2.534 0.71,-3.64c0.475,-1.105 1.091,-2.06 1.853,-2.864c0.76,-0.803 1.636,-1.435 2.627,-1.895c0.99,-0.459 2.002,-0.689 3.036,-0.689c1.234,0 2.362,0.252 3.381,0.754c1.019,0.502 1.895,1.177 2.627,2.024c0.732,0.847 1.299,1.816 1.702,2.907c0.401,1.092 0.603,2.226 0.603,3.403l0,10.207l1.636,0Zm3.622,-30.148l0,19.941c0,1.55 0.259,2.972 0.775,4.264c0.517,1.292 1.221,2.411 2.111,3.359c0.89,0.948 1.945,1.687 3.166,2.218c1.22,0.531 2.519,0.796 3.897,0.796c1.379,0 2.677,-0.265 3.898,-0.796c1.22,-0.531 2.275,-1.27 3.166,-2.218c0.889,-0.948 1.593,-2.067 2.11,-3.359c0.517,-1.292 0.775,-2.714 0.775,-4.264c0,-1.551 -0.258,-2.972 -0.775,-4.264c-0.517,-1.292 -1.221,-2.412 -2.11,-3.36c-0.891,-0.947 -1.946,-1.686 -3.166,-2.218c-1.221,-0.531 -2.519,-0.797 -3.898,-0.797c-0.775,0 -1.486,0.087 -2.132,0.259c-0.646,0.172 -1.235,0.388 -1.765,0.646c-0.532,0.258 -0.998,0.538 -1.4,0.84c-0.403,0.301 -0.761,0.581 -1.077,0.84l0,1.938c0.89,-0.919 1.83,-1.644 2.821,-2.175c0.991,-0.531 2.175,-0.797 3.553,-0.797c1.034,0 2.046,0.23 3.037,0.689c0.99,0.46 1.866,1.092 2.627,1.895c0.76,0.804 1.378,1.759 1.852,2.864c0.473,1.106 0.711,2.319 0.711,3.64c0,1.32 -0.238,2.534 -0.711,3.639c-0.474,1.105 -1.092,2.06 -1.852,2.864c-0.761,0.804 -1.637,1.436 -2.627,1.895c-0.991,0.46 -2.003,0.689 -3.037,0.689c-1.235,0 -2.362,-0.251 -3.381,-0.754c-1.019,-0.502 -1.895,-1.169 -2.627,-2.002c-0.732,-0.833 -1.299,-1.802 -1.701,-2.907c-0.403,-1.106 -0.603,-2.247 -0.603,-3.424l0,-19.941l-1.637,0Zm42.725,30.148l0,-10.207c0,-1.551 -0.259,-2.972 -0.775,-4.264c-0.517,-1.292 -1.221,-2.412 -2.111,-3.36c-0.89,-0.947 -1.945,-1.686 -3.166,-2.218c-1.22,-0.531 -2.519,-0.797 -3.897,-0.797c-1.379,0 -2.678,0.266 -3.898,0.797c-1.221,0.532 -2.276,1.271 -3.166,2.218c-0.89,0.948 -1.593,2.068 -2.11,3.36c-0.517,1.292 -0.775,2.713 -0.775,4.264c0,1.55 0.258,2.972 0.775,4.264c0.517,1.292 1.22,2.411 2.11,3.359c0.89,0.948 1.945,1.687 3.166,2.218c1.22,0.531 2.519,0.796 3.898,0.796c0.775,0 1.486,-0.086 2.132,-0.258c0.646,-0.172 1.234,-0.387 1.765,-0.646c0.531,-0.258 0.998,-0.538 1.4,-0.84c0.402,-0.301 0.761,-0.581 1.077,-0.84l0,-1.938c-0.89,0.919 -1.83,1.644 -2.821,2.175c-0.991,0.532 -2.175,0.797 -3.553,0.797c-1.034,0 -2.046,-0.229 -3.037,-0.689c-0.99,-0.459 -1.866,-1.091 -2.627,-1.895c-0.761,-0.804 -1.378,-1.759 -1.852,-2.864c-0.473,-1.105 -0.711,-2.319 -0.711,-3.639c0,-1.321 0.238,-2.534 0.711,-3.64c0.474,-1.105 1.091,-2.06 1.852,-2.864c0.761,-0.803 1.637,-1.435 2.627,-1.895c0.991,-0.459 2.003,-0.689 3.037,-0.689c1.234,0 2.361,0.252 3.381,0.754c1.018,0.502 1.895,1.177 2.627,2.024c0.732,0.847 1.299,1.816 1.701,2.907c0.402,1.092 0.603,2.226 0.603,3.403l0,10.207l1.637,0Zm3.602,0l8.743,0c2.268,0 4.027,-0.423 5.276,-1.271c1.249,-0.846 1.874,-2.175 1.874,-3.984c0,-1.349 -0.352,-2.396 -1.056,-3.143c-0.704,-0.747 -1.572,-1.328 -2.605,-1.745c-1.034,-0.416 -2.169,-0.746 -3.403,-0.99c-1.235,-0.244 -2.368,-0.517 -3.402,-0.819c-1.034,-0.301 -1.903,-0.717 -2.606,-1.249c-0.704,-0.531 -1.055,-1.299 -1.055,-2.304c0,-1.12 0.366,-1.96 1.098,-2.519c0.732,-0.561 1.543,-0.84 2.434,-0.84l9.044,0l0,-1.551l-9.174,0c-0.833,0 -1.572,0.137 -2.218,0.409c-0.646,0.274 -1.192,0.632 -1.636,1.077c-0.446,0.446 -0.783,0.969 -1.013,1.572c-0.229,0.603 -0.344,1.235 -0.344,1.895c0,1.264 0.351,2.247 1.055,2.95c0.703,0.704 1.572,1.249 2.606,1.637c1.033,0.388 2.167,0.704 3.402,0.947c1.235,0.245 2.369,0.539 3.403,0.883c1.033,0.345 1.901,0.826 2.605,1.443c0.704,0.618 1.055,1.486 1.055,2.606c0,1.033 -0.373,1.867 -1.119,2.498c-0.748,0.632 -2.024,0.948 -3.833,0.948l-9.131,0l0,1.55Z" style="fill:#000;fill-rule:nonzero;"/><path d="M149.499,40.458l-6.986,-9.149c0,0 -0.733,-0.959 -1.939,-0.959l-30.033,0c0,0 -1.208,0 -1.208,1.207l0,18.112c0,0 0,1.207 1.208,1.207l30.033,0c0,0 1.206,0 2.011,-0.901l6.843,-7.657c0,0 0.805,-0.9 0.071,-1.86m-28.337,4.967l-6.291,0l0,-9.564l6.291,0l0,1.664l-4.427,0l0,2.24l3.769,0l0,1.663l-3.769,0l0,2.334l4.427,0l0,1.663Zm7.323,-4.134l2.133,4.134l-2.159,0l-1.865,-3.822l-1.341,0l0,3.822l-1.865,0l0,-9.564l3.742,0c0.949,0 1.702,0.28 2.261,0.839c0.558,0.558 0.838,1.253 0.838,2.084c0,0.626 -0.166,1.156 -0.496,1.589c-0.331,0.433 -0.747,0.74 -1.248,0.918m10.973,-2.452c0,0.841 -0.286,1.547 -0.859,2.12c-0.572,0.572 -1.337,0.858 -2.293,0.858l-1.837,0l0,3.608l-1.865,0l0,-9.564l3.702,0c0.966,0 1.733,0.284 2.301,0.852c0.567,0.568 0.851,1.277 0.851,2.126m-2.24,0.953c0.25,-0.233 0.375,-0.55 0.375,-0.953c0,-0.393 -0.125,-0.71 -0.375,-0.952c-0.25,-0.242 -0.586,-0.362 -1.006,-0.362l-1.743,0l0,2.616l1.743,0c0.42,0 0.756,-0.116 1.006,-0.349m-9.229,-0.106c0.25,-0.231 0.376,-0.533 0.376,-0.907c0,-0.382 -0.124,-0.687 -0.369,-0.914c-0.246,-0.227 -0.575,-0.34 -0.986,-0.34l-1.757,0l0,2.508l1.757,0c0.402,0 0.728,-0.116 0.979,-0.347" style="fill:#1bbaa5;fill-rule:nonzero;"/></g></g></svg>